<svg width="309" height="56" viewBox="0 0 309 56" fill="none" xmlns="http://www.w3.org/2000/svg">
<mask id="mask0_1_14281" style="mask-type:alpha" maskUnits="userSpaceOnUse" x="0" y="31" width="309" height="25">
<rect y="31" width="309" height="25" fill="#C4C4C4"/>
</mask>
<g mask="url(#mask0_1_14281)">
<path d="M0.240723 52V11.6705H10.9048C15.6136 11.6705 19.3622 13.1662 22.1505 16.1577C24.9573 19.1492 26.3884 23.2486 26.4438 28.456V34.9929C26.4438 40.2927 25.0404 44.4567 22.2336 47.4851C19.4453 50.4951 15.5951 52 10.6832 52H0.240723ZM8.38419 18.4567V45.2415H10.8217C13.5362 45.2415 15.4474 44.5306 16.5554 43.1087C17.6633 41.6684 18.245 39.1939 18.3004 35.6854V28.6776C18.3004 24.9105 17.7741 22.2884 16.7215 20.8111C15.669 19.3154 13.8778 18.5306 11.348 18.4567H8.38419Z" fill="white"/>
<path d="M53.1455 34.5498H40.4595V45.2415H55.4723V52H32.316V11.6705H55.4169V18.4567H40.4595V27.9851H53.1455V34.5498Z" fill="white"/>
<path d="M79.4318 43.7458H68.3245L66.164 52H57.5497L70.1527 11.6705H77.6036L90.2897 52H81.5923L79.4318 43.7458ZM70.0973 36.9596H77.6313L73.8643 22.5838L70.0973 36.9596Z" fill="white"/>
<path d="M116.881 18.4567H106.909V52H98.7379V18.4567H88.9325V11.6705H116.881V18.4567Z" fill="white"/>
<path d="M149.842 52H141.727V34.7436H129.705V52H121.562V11.6705H129.705V27.9851H141.727V11.6705H149.842V52Z" fill="white"/>
<path d="M183.746 38.5661C183.543 43.1641 182.25 46.6449 179.868 49.0086C177.486 51.3722 174.125 52.554 169.785 52.554C165.224 52.554 161.725 51.0583 159.288 48.0668C156.869 45.0569 155.659 40.7728 155.659 35.2145V28.4283C155.659 22.8885 156.915 18.6229 159.426 15.6314C161.937 12.6215 165.428 11.1165 169.896 11.1165C174.291 11.1165 177.624 12.3445 179.896 14.8005C182.185 17.2564 183.487 20.7834 183.801 25.3814H175.63C175.556 22.5377 175.113 20.5803 174.3 19.5093C173.506 18.4198 172.038 17.875 169.896 17.875C167.717 17.875 166.175 18.6414 165.271 20.174C164.366 21.6882 163.886 24.1904 163.83 27.6804V35.2976C163.83 39.3047 164.273 42.0561 165.16 43.5519C166.065 45.0476 167.606 45.7955 169.785 45.7955C171.928 45.7955 173.405 45.2784 174.217 44.2444C175.03 43.1918 175.491 41.299 175.602 38.5661H183.746Z" fill="white"/>
<path d="M196.903 45.2415H211.195V52H188.759V11.6705H196.903V45.2415Z" fill="white"/>
<path d="M242.523 35.4638C242.523 40.8743 241.239 45.0753 238.673 48.0668C236.124 51.0583 232.579 52.554 228.036 52.554C223.512 52.554 219.957 51.0767 217.372 48.1222C214.787 45.1492 213.476 40.9944 213.439 35.6577V28.7607C213.439 23.2209 214.722 18.8999 217.289 15.7976C219.856 12.6769 223.42 11.1165 227.981 11.1165C232.468 11.1165 236.004 12.6492 238.589 15.7145C241.175 18.7614 242.486 23.0455 242.523 28.5668V35.4638ZM234.352 28.7053C234.352 25.0675 233.834 22.3623 232.8 20.5895C231.766 18.8168 230.16 17.9304 227.981 17.9304C225.82 17.9304 224.223 18.7891 223.189 20.5064C222.155 22.2053 221.619 24.7998 221.582 28.2898V35.4638C221.582 38.9908 222.109 41.5945 223.161 43.2749C224.214 44.9368 225.839 45.7678 228.036 45.7678C230.16 45.7678 231.739 44.9553 232.773 43.3303C233.807 41.6868 234.333 39.1478 234.352 35.7131V28.7053Z" fill="white"/>
<path d="M275.706 38.5661C275.503 43.1641 274.21 46.6449 271.828 49.0086C269.446 51.3722 266.085 52.554 261.746 52.554C257.185 52.554 253.685 51.0583 251.248 48.0668C248.829 45.0569 247.619 40.7728 247.619 35.2145V28.4283C247.619 22.8885 248.875 18.6229 251.386 15.6314C253.898 12.6215 257.388 11.1165 261.856 11.1165C266.251 11.1165 269.584 12.3445 271.856 14.8005C274.146 17.2564 275.447 20.7834 275.761 25.3814H267.59C267.516 22.5377 267.073 20.5803 266.261 19.5093C265.467 18.4198 263.999 17.875 261.856 17.875C259.678 17.875 258.136 18.6414 257.231 20.174C256.326 21.6882 255.846 24.1904 255.79 27.6804V35.2976C255.79 39.3047 256.234 42.0561 257.12 43.5519C258.025 45.0476 259.567 45.7955 261.746 45.7955C263.888 45.7955 265.365 45.2784 266.178 44.2444C266.99 43.1918 267.452 41.299 267.562 38.5661H275.706Z" fill="white"/>
<path d="M292.076 36.4333L288.863 40.4773V52H280.719V11.6705H288.863V29.2593L291.439 24.9105L298.945 11.6705H308.917L297.366 29.3978L309.111 52H299.444L292.076 36.4333Z" fill="white"/>
</g>
<mask id="mask1_1_14281" style="mask-type:alpha" maskUnits="userSpaceOnUse" x="0" y="0" width="309" height="27">
<rect width="309" height="27" fill="#C4C4C4"/>
</mask>
<g mask="url(#mask1_1_14281)">
<path d="M0.240723 47.2727V6.94314H10.9048C15.6136 6.94314 19.3622 8.43888 22.1505 11.4304C24.9573 14.4218 26.3884 18.5213 26.4438 23.7286V30.2656C26.4438 35.5653 25.0404 39.7294 22.2336 42.7578C19.4453 45.7677 15.5951 47.2727 10.6832 47.2727H0.240723ZM8.38419 13.7294V40.5142H10.8217C13.5362 40.5142 15.4474 39.8032 16.5554 38.3813C17.6633 36.941 18.245 34.4666 18.3004 30.9581V23.9502C18.3004 20.1832 17.7741 17.561 16.7215 16.0838C15.669 14.588 13.8778 13.8032 11.348 13.7294H8.38419Z" fill="white"/>
<path d="M53.1455 29.8224H40.4595V40.5142H55.4723V47.2727H32.316V6.94314H55.4169V13.7294H40.4595V23.2578H53.1455V29.8224Z" fill="white"/>
<path d="M79.4318 39.0184H68.3245L66.164 47.2727H57.5497L70.1527 6.94314H77.6036L90.2897 47.2727H81.5923L79.4318 39.0184ZM70.0973 32.2322H77.6313L73.8643 17.8565L70.0973 32.2322Z" fill="white"/>
<path d="M116.881 13.7294H106.909V47.2727H98.7379V13.7294H88.9325V6.94314H116.881V13.7294Z" fill="white"/>
<path d="M149.842 47.2727H141.727V30.0163H129.705V47.2727H121.562V6.94314H129.705V23.2578H141.727V6.94314H149.842V47.2727Z" fill="white"/>
<path d="M183.746 33.8387C183.543 38.4367 182.25 41.9176 179.868 44.2812C177.486 46.6448 174.125 47.8267 169.785 47.8267C165.224 47.8267 161.725 46.3309 159.288 43.3394C156.869 40.3295 155.659 36.0454 155.659 30.4872V23.7009C155.659 18.1612 156.915 13.8956 159.426 10.9041C161.937 7.89413 165.428 6.38916 169.896 6.38916C174.291 6.38916 177.624 7.61714 179.896 10.0731C182.185 12.5291 183.487 16.0561 183.801 20.6541H175.63C175.556 17.8103 175.113 15.8529 174.3 14.7819C173.506 13.6924 172.038 13.1477 169.896 13.1477C167.717 13.1477 166.175 13.914 165.271 15.4467C164.366 16.9609 163.886 19.463 163.83 22.9531V30.5703C163.83 34.5774 164.273 37.3288 165.16 38.8245C166.065 40.3203 167.606 41.0681 169.785 41.0681C171.928 41.0681 173.405 40.5511 174.217 39.517C175.03 38.4644 175.491 36.5717 175.602 33.8387H183.746Z" fill="white"/>
<path d="M196.903 40.5142H211.195V47.2727H188.759V6.94314H196.903V40.5142Z" fill="white"/>
<path d="M242.523 30.7365C242.523 36.147 241.239 40.348 238.673 43.3394C236.124 46.3309 232.579 47.8267 228.036 47.8267C223.512 47.8267 219.957 46.3494 217.372 43.3948C214.787 40.4218 213.476 36.267 213.439 30.9304V24.0333C213.439 18.4936 214.722 14.1725 217.289 11.0703C219.856 7.94953 223.42 6.38916 227.981 6.38916C232.468 6.38916 236.004 7.92183 238.589 10.9872C241.175 14.034 242.486 18.3181 242.523 23.8394V30.7365ZM234.352 23.9779C234.352 20.3402 233.834 17.6349 232.8 15.8622C231.766 14.0894 230.16 13.2031 227.981 13.2031C225.82 13.2031 224.223 14.0617 223.189 15.7791C222.155 17.4779 221.619 20.0724 221.582 23.5625V30.7365C221.582 34.2634 222.109 36.8671 223.161 38.5475C224.214 40.2095 225.839 41.0404 228.036 41.0404C230.16 41.0404 231.739 40.2279 232.773 38.6029C233.807 36.9595 234.333 34.4204 234.352 30.9857V23.9779Z" fill="white"/>
<path d="M275.706 33.8387C275.503 38.4367 274.21 41.9176 271.828 44.2812C269.446 46.6448 266.085 47.8267 261.746 47.8267C257.185 47.8267 253.685 46.3309 251.248 43.3394C248.829 40.3295 247.619 36.0454 247.619 30.4872V23.7009C247.619 18.1612 248.875 13.8956 251.386 10.9041C253.898 7.89413 257.388 6.38916 261.856 6.38916C266.251 6.38916 269.584 7.61714 271.856 10.0731C274.146 12.5291 275.447 16.0561 275.761 20.6541H267.59C267.516 17.8103 267.073 15.8529 266.261 14.7819C265.467 13.6924 263.999 13.1477 261.856 13.1477C259.678 13.1477 258.136 13.914 257.231 15.4467C256.326 16.9609 255.846 19.463 255.79 22.9531V30.5703C255.79 34.5774 256.234 37.3288 257.12 38.8245C258.025 40.3203 259.567 41.0681 261.746 41.0681C263.888 41.0681 265.365 40.5511 266.178 39.517C266.99 38.4644 267.452 36.5717 267.562 33.8387H275.706Z" fill="white"/>
<path d="M292.076 31.7059L288.863 35.75V47.2727H280.719V6.94314H288.863V24.5319L291.439 20.1832L298.945 6.94314H308.917L296.591 27.1818L309.111 47.2727H299.444L292.076 31.7059Z" fill="white"/>
</g>
</svg>
